<svg xmlns="http://www.w3.org/2000/svg" viewBox="0 0 500 500"><g id="freepik--background-simple--inject-3"><path d="M249.57,93.38c-68.72,30.92-6.34,86-46,116S56,204.72,97.13,282.65c48.3,91.53,259.83,78.82,305.44-33.45S318.28,62.47,249.57,93.38Z" style="fill:#000000"></path><path d="M249.57,93.38c-68.72,30.92-6.34,86-46,116S56,204.72,97.13,282.65c48.3,91.53,259.83,78.82,305.44-33.45S318.28,62.47,249.57,93.38Z" style="fill:#fff;opacity:0.9"></path></g><g id="freepik--Shadow--inject-3"><ellipse id="freepik--path--inject-3" cx="250" cy="416.24" rx="193.89" ry="11.32" style="fill:#f5f5f5"></ellipse></g><g id="freepik--speech-bubble--inject-3"><path d="M213.48,119.42H184.76a8.85,8.85,0,0,0-8.85,8.85v25a8.84,8.84,0,0,0,8.85,8.84h5.38l-2,7.9,8-7.9h17.4a8.84,8.84,0,0,0,8.84-8.84v-25A8.85,8.85,0,0,0,213.48,119.42Z" style="fill:#000000"></path><path d="M213.48,119.42H184.76a8.85,8.85,0,0,0-8.85,8.85v25a8.84,8.84,0,0,0,8.85,8.84h5.38l-2,7.9,8-7.9h17.4a8.84,8.84,0,0,0,8.84-8.84v-25A8.85,8.85,0,0,0,213.48,119.42Z" style="fill:#fff;opacity:0.7000000000000001"></path><path d="M199.12,155.79a14.8,14.8,0,1,1,14.8-14.8A14.82,14.82,0,0,1,199.12,155.79Zm0-27.6a12.8,12.8,0,1,0,12.8,12.8A12.81,12.81,0,0,0,199.12,128.19Z" style="fill:#000000"></path><path d="M196.85,146.71h0a1,1,0,0,1-.73-.32l-4.36-4.72a1,1,0,0,1,.06-1.42,1,1,0,0,1,1.41.06l3.63,3.94L205,135.6a1,1,0,0,1,1.41,0,1,1,0,0,1,0,1.42l-8.89,9.42A1,1,0,0,1,196.85,146.71Z" style="fill:#000000"></path></g><g id="freepik--Device--inject-3"><path d="M269.71,413.46v3a.68.68,0,0,0,.68.68h85.15a4.44,4.44,0,0,0,4.11-6.1l-27-66.82-43.6.3,1.49,8.67,9.62,56.12a3,3,0,0,1-2.92,3.47H270.39A.67.67,0,0,0,269.71,413.46Z" style="fill:#000000"></path><path d="M269.71,413.46v3a.68.68,0,0,0,.68.68h85.15a4.44,4.44,0,0,0,4.11-6.1l-16.72-41.42-10.26-25.4-43.6.3,1.49,8.67,4.18,24.4,5.44,31.72a3,3,0,0,1-2.92,3.47H270.39A.67.67,0,0,0,269.71,413.46Z" style="fill:#fff;opacity:0.6000000000000001"></path><path d="M297.26,412.79h55.39a2,2,0,0,0,1.8-2.69l-23.66-56.9H290.56l9.62,56.12A3,3,0,0,1,297.26,412.79Z" style="isolation:isolate;opacity:0.2"></path><polygon points="289.07 344.53 290.56 353.2 294.74 377.6 342.93 369.63 332.67 344.23 289.07 344.53" style="isolation:isolate;opacity:0.1"></polygon><path d="M204.29,220H406.15a5.16,5.16,0,0,1,5.16,5.17V361.78a5.17,5.17,0,0,1-5.16,5.17H204.29a5.17,5.17,0,0,1-5.17-5.17V225.13A5.16,5.16,0,0,1,204.29,220Z" style="fill:#000000"></path><path d="M204.29,220H406.15a5.16,5.16,0,0,1,5.16,5.17V361.78a5.17,5.17,0,0,1-5.16,5.17H204.29a5.17,5.17,0,0,1-5.17-5.17V225.13A5.16,5.16,0,0,1,204.29,220Z" style="fill:#fff;opacity:0.7000000000000001"></path><path d="M401.87,366.94h4.28a5.16,5.16,0,0,0,5.16-5.16V225.13a5.16,5.16,0,0,0-5.16-5.17h-4.28a5.16,5.16,0,0,1,5.16,5.17V361.78A5.16,5.16,0,0,1,401.87,366.94Z" style="isolation:isolate;opacity:0.2"></path><rect x="203.77" y="225.02" width="198.6" height="131.77" style="fill:#263238"></rect><rect x="203.77" y="225.02" width="198.6" height="10.11" style="fill:#000000"></rect><path d="M397.73,230.44a2.47,2.47,0,1,1-2.47-2.47A2.48,2.48,0,0,1,397.73,230.44Z" style="opacity:0.2"></path><path d="M389.57,230.44A2.47,2.47,0,1,1,387.1,228,2.47,2.47,0,0,1,389.57,230.44Z" style="opacity:0.2"></path><path d="M381.42,230.44A2.47,2.47,0,1,1,379,228,2.48,2.48,0,0,1,381.42,230.44Z" style="opacity:0.2"></path><rect x="203.77" y="235.18" width="198.6" height="34.21" style="fill:#fff;opacity:0.4"></rect><polygon points="208.32 236.7 203.77 244.85 203.77 236.7 208.32 236.7" style="fill:#263238"></polygon><polygon points="232.85 236.7 215.42 267.98 203.77 267.98 203.77 264.15 219.07 236.7 232.85 236.7" style="fill:#263238"></polygon><polygon points="239.88 268.11 226.1 268.11 243.61 236.69 257.38 236.69 239.88 268.11" style="fill:#263238"></polygon><polygon points="264.41 268.11 250.63 268.11 268.14 236.69 281.92 236.69 264.41 268.11" style="fill:#263238"></polygon><polygon points="288.94 268.11 275.16 268.11 292.67 236.69 306.45 236.69 288.94 268.11" style="fill:#263238"></polygon><polygon points="313.47 268.11 299.7 268.11 317.2 236.69 330.98 236.69 313.47 268.11" style="fill:#263238"></polygon><polygon points="338.01 267.88 324.23 267.88 341.74 236.46 355.51 236.46 338.01 267.88" style="fill:#263238"></polygon><polygon points="362.54 267.88 348.76 267.88 366.27 236.46 380.05 236.46 362.54 267.88" style="fill:#263238"></polygon><polygon points="402.37 236.59 402.37 240.43 387.07 267.88 373.29 267.88 390.73 236.59 402.37 236.59" style="fill:#263238"></polygon><polygon points="402.37 259.96 402.37 267.98 397.9 267.98 402.37 259.96" style="fill:#263238"></polygon><rect x="203.77" y="322.45" width="198.6" height="34.21" style="fill:#fff;opacity:0.4"></rect><polygon points="208.32 324.25 203.77 332.33 203.77 324.25 208.32 324.25" style="fill:#263238"></polygon><polygon points="232.85 324.25 215.42 355.27 203.77 355.27 203.77 351.47 219.07 324.25 232.85 324.25" style="fill:#263238"></polygon><polygon points="239.88 355.4 226.1 355.4 243.61 324.25 257.38 324.25 239.88 355.4" style="fill:#263238"></polygon><polygon points="264.41 355.4 250.63 355.4 268.14 324.25 281.92 324.25 264.41 355.4" style="fill:#263238"></polygon><polygon points="288.94 355.4 275.16 355.4 292.67 324.25 306.45 324.25 288.94 355.4" style="fill:#263238"></polygon><polygon points="313.47 355.4 299.7 355.4 317.2 324.25 330.98 324.25 313.47 355.4" style="fill:#263238"></polygon><polygon points="338.01 355.17 324.23 355.17 341.74 324.02 355.51 324.02 338.01 355.17" style="fill:#263238"></polygon><polygon points="362.54 355.17 348.76 355.17 366.27 324.02 380.05 324.02 362.54 355.17" style="fill:#263238"></polygon><polygon points="402.37 324.14 402.37 327.94 387.07 355.16 373.29 355.16 390.73 324.14 402.37 324.14" style="fill:#263238"></polygon><polygon points="402.37 347.31 402.37 355.27 397.9 355.27 402.37 347.31" style="fill:#263238"></polygon><path d="M270.17,301v2.85h-13.7V285.58h13.34v2.84h-9.94v4.75h8.82V296h-8.82v5Z" style="fill:#fff"></path><path d="M285.91,303.85l-3.73-5.35c-.24,0-.47,0-.71,0h-4.12v5.33H274V285.58h7.52c4.8,0,7.78,2.45,7.78,6.5a5.85,5.85,0,0,1-3.89,5.77l4.2,6Zm-4.6-15.4h-4v7.28h4c3,0,4.52-1.36,4.52-3.65S284.29,288.45,281.31,288.45Z" style="fill:#fff"></path><path d="M305,303.85l-3.73-5.35c-.24,0-.47,0-.71,0h-4.12v5.33H293V285.58h7.51c4.81,0,7.78,2.45,7.78,6.5a5.85,5.85,0,0,1-3.89,5.77l4.2,6Zm-4.59-15.4h-4v7.28h4c3,0,4.51-1.36,4.51-3.65S303.36,288.45,300.39,288.45Z" style="fill:#fff"></path><path d="M310.79,294.71c0-5.4,4.18-9.39,9.84-9.39s9.84,4,9.84,9.39-4.17,9.4-9.84,9.4S310.79,300.12,310.79,294.71Zm16.26,0a6.42,6.42,0,1,0-6.42,6.42A6.23,6.23,0,0,0,327.05,294.71Z" style="fill:#fff"></path><path d="M346,303.85l-3.73-5.35c-.24,0-.47,0-.7,0h-4.13v5.33h-3.39V285.58h7.52c4.8,0,7.77,2.45,7.77,6.5a5.85,5.85,0,0,1-3.89,5.77l4.21,6Zm-4.59-15.4h-4v7.28h4c3,0,4.51-1.36,4.51-3.65S344.4,288.45,341.43,288.45Z" style="fill:#fff"></path><path d="M365.61,306.73h21.51a2.7,2.7,0,0,0,2.34-4.05L378.7,284.05a2.69,2.69,0,0,0-4.67,0l-10.76,18.63A2.7,2.7,0,0,0,365.61,306.73Zm12.2-17.6-.47,9.28h-2l-.49-9.28Zm-3,12.47a1.5,1.5,0,0,1,1.56-1.52A1.53,1.53,0,0,1,378,301.6a1.55,1.55,0,0,1-1.61,1.55A1.52,1.52,0,0,1,374.78,301.6Z" style="fill:#fff;opacity:0.4"></path><path d="M219,306.73h21.51a2.7,2.7,0,0,0,2.33-4.05l-10.75-18.63a2.69,2.69,0,0,0-4.67,0l-10.76,18.63A2.7,2.7,0,0,0,219,306.73Zm12.2-17.6-.48,9.28h-2l-.49-9.28Zm-3,12.47a1.5,1.5,0,0,1,1.56-1.52,1.53,1.53,0,0,1,1.61,1.52,1.55,1.55,0,0,1-1.61,1.55A1.52,1.52,0,0,1,228.2,301.6Z" style="fill:#fff;opacity:0.4"></path><path d="M224.47,225c27.46,27.51,98,88.73,177.9,84.21V225Z" style="fill:#fff;opacity:0.1"></path><path d="M203.77,275.58V356.8H323.34c-4.59-16.41-13.75-38.87-31.53-54.92C259.82,273,222.7,273.08,203.77,275.58Z" style="fill:#fff;opacity:0.1"></path></g><g id="freepik--tool-box--inject-3"><path d="M374,411l3.56,1.56a5.43,5.43,0,0,1-5.7,1.19,5,5,0,0,1-2.73-6,4.34,4.34,0,0,1,1.3-2.11l-9.68-24.73c-3.48.14-4.95-3.12-4.87-5.36l3.54,1.57a1.64,1.64,0,1,0,1.3-3l-3.56-1.56a5.42,5.42,0,0,1,5.7-1.19,5.06,5.06,0,0,1,2.87,5.95,3.88,3.88,0,0,1-1.16,2.05l9.68,24.74c2.71.15,4.81,3.17,4.73,5.41L375.37,408a1.68,1.68,0,0,0-2.2.86A1.65,1.65,0,0,0,374,411Z" style="fill:#000000"></path><path d="M374,411l3.56,1.56a5.43,5.43,0,0,1-5.7,1.19,5,5,0,0,1-2.73-6,4.34,4.34,0,0,1,1.3-2.11l-9.68-24.73c-3.48.14-4.95-3.12-4.87-5.36l3.54,1.57a1.64,1.64,0,1,0,1.3-3l-3.56-1.56a5.42,5.42,0,0,1,5.7-1.19,5.06,5.06,0,0,1,2.87,5.95,3.88,3.88,0,0,1-1.16,2.05l9.68,24.74c2.71.15,4.81,3.17,4.73,5.41L375.37,408a1.68,1.68,0,0,0-2.2.86A1.65,1.65,0,0,0,374,411Z" style="fill:#fff;opacity:0.2"></path><path d="M346.39,389.14l-3.77.94a5.4,5.4,0,0,1,3.79-4.42,5,5,0,0,1,5.83,3.09,4.32,4.32,0,0,1,.25,2.47l22.76,13.69c2.67-2.24,5.82-.55,7.13,1.27l-3.76.92a1.63,1.63,0,0,0-1.2,2,1.65,1.65,0,0,0,2,1.19l3.78-.94a5.4,5.4,0,0,1-3.79,4.42,5.06,5.06,0,0,1-5.91-3,4,4,0,0,1-.34-2.33l-22.75-13.7c-2.25,1.54-5.75.43-7.05-1.4l3.8-1a1.69,1.69,0,0,0,1.22-2A1.65,1.65,0,0,0,346.39,389.14Z" style="fill:#000000"></path><path d="M346.39,389.14l-3.77.94a5.4,5.4,0,0,1,3.79-4.42,5,5,0,0,1,5.83,3.09,4.32,4.32,0,0,1,.25,2.47l22.76,13.69c2.67-2.24,5.82-.55,7.13,1.27l-3.76.92a1.63,1.63,0,0,0-1.2,2,1.65,1.65,0,0,0,2,1.19l3.78-.94a5.4,5.4,0,0,1-3.79,4.42,5.06,5.06,0,0,1-5.91-3,4,4,0,0,1-.34-2.33l-22.75-13.7c-2.25,1.54-5.75.43-7.05-1.4l3.8-1a1.69,1.69,0,0,0,1.22-2A1.65,1.65,0,0,0,346.39,389.14Z" style="fill:#fff;opacity:0.2"></path><polygon points="422.89 377.76 422.89 377.76 422.95 377.6 387.78 377.6 379.53 399.39 414.55 399.39 414.53 399.45 417.42 399.45 424.84 380.02 422.89 377.76" style="fill:#263238"></polygon><polygon points="422.89 377.76 422.89 377.76 422.95 377.6 387.78 377.6 379.53 399.39 414.55 399.39 414.53 399.45 417.42 399.45 424.84 380.02 422.89 377.76" style="fill:#fff;opacity:0.2"></polygon><polygon points="422.95 377.6 414.7 399.39 379.53 399.39 387.78 377.6 422.95 377.6" style="isolation:isolate;opacity:0.4"></polygon><polygon points="361.9 392.85 370.04 403.31 372.96 402.87 364.37 392.85 361.9 392.85" style="fill:#263238"></polygon><polygon points="361.9 392.85 370.04 403.31 372.96 402.87 364.37 392.85 361.9 392.85" style="fill:#fff;opacity:0.1"></polygon><polygon points="364.37 382.96 372.51 393.42 375.43 392.98 366.84 382.96 364.37 382.96" style="fill:#263238"></polygon><polygon points="364.37 382.96 372.51 393.42 375.43 392.98 366.84 382.96 364.37 382.96" style="fill:#fff;opacity:0.1"></polygon><rect x="353.88" y="399.39" width="60.82" height="17.76" transform="translate(768.58 816.54) rotate(180)" style="fill:#263238"></rect><rect x="353.88" y="399.39" width="60.82" height="17.76" transform="translate(768.58 816.54) rotate(180)" style="fill:#fff;opacity:0.2"></rect><rect x="360.48" y="391.14" width="55.87" height="2.81" transform="translate(776.83 785.1) rotate(180)" style="fill:#263238"></rect><rect x="360.48" y="391.14" width="55.87" height="2.81" transform="translate(776.83 785.1) rotate(180)" style="fill:#fff;opacity:0.2"></rect><rect x="394.9" y="391.14" width="21.45" height="2.81" transform="translate(811.25 785.1) rotate(180)" style="isolation:isolate;opacity:0.2"></rect><rect x="363.77" y="382.9" width="55.87" height="2.81" transform="translate(783.42 768.6) rotate(180)" style="fill:#263238"></rect><rect x="363.77" y="382.9" width="55.87" height="2.81" transform="translate(783.42 768.6) rotate(180)" style="fill:#fff;opacity:0.2"></rect><rect x="398.2" y="382.9" width="21.45" height="2.81" transform="translate(817.85 768.6) rotate(180)" style="isolation:isolate;opacity:0.2"></rect><rect x="390.78" y="399.39" width="23.92" height="17.76" transform="translate(805.48 816.54) rotate(180)" style="isolation:isolate;opacity:0.2"></rect></g></svg>
